Coordinates
version=1
nRows=14
nColumns=63
inDegrees=yes

Units are S.I. units (second, meters, Newtons, ...)
If the header above contains a line with 'inDegrees', this indicates whether rotational values are in degrees (yes) or radians (no).

endheader
time	pelvis_tilt	pelvis_list	pelvis_rotation	pelvis_tx	pelvis_ty	pelvis_tz	hip_flexion_r	hip_adduction_r	hip_rotation_r	knee_angle_r	knee_angle_r_beta	ankle_angle_r	subtalar_angle_r	mtp_angle_r	hip_flexion_l	hip_adduction_l	hip_rotation_l	knee_angle_l	knee_angle_l_beta	ankle_angle_l	subtalar_angle_l	mtp_angle_l	L5_S1_Flex_Ext	L5_S1_Lat_Bending	L5_S1_axial_rotation	L4_L5_Flex_Ext	L4_L5_Lat_Bending	L4_L5_axial_rotation	L3_L4_Flex_Ext	L3_L4_Lat_Bending	L3_L4_axial_rotation	L2_L3_Flex_Ext	L2_L3_Lat_Bending	L2_L3_axial_rotation	L1_L2_Flex_Ext	L1_L2_Lat_Bending	L1_L2_axial_rotation	L1_T12_Flex_Ext	L1_T12_Lat_Bending	L1_T12_axial_rotation	Abs_r3	Abs_r2	Abs_r1	Abs_t1	Abs_t2	neck_flexion	neck_bending	neck_rotation	arm_flex_r	arm_add_r	arm_rot_r	elbow_flex_r	pro_sup_r	wrist_flex_r	wrist_dev_r	arm_flex_l	arm_add_l	arm_rot_l	elbow_flex_l	pro_sup_l	wrist_flex_l	wrist_dev_l
3.315789	1.296314	-8.420868	83.464239	0.207715	0.981775	0.359400	0.100060	4.466271	9.867205	8.206191	0.143225	31.269919	4.116711	0.000000	4.097995	-4.368830	-9.466314	16.980861	0.296372	32.389130	-10.038802	0.000000	-0.460090	0.001045	2.945563	-0.854433	0.001390	3.129660	-0.755882	0.002540	3.129660	-0.525837	0.002540	2.577367	-0.427239	0.002131	2.393270	-0.262895	0.001619	2.209172	-3.286376	0.011820	16.382335	0.000000	0.000000	12.773138	3.827537	-10.854738	-8.608581	-23.816815	-14.070036	106.697691	83.481557	-0.102556	14.828866	11.491332	-11.147135	153.507972	0.286842	1.437295	-25.154309	-24.186992
3.333333	1.542963	-8.379455	83.268704	0.207001	0.982916	0.359816	-0.049086	4.605585	9.610026	7.965962	0.139032	30.905444	4.684888	0.000000	3.842861	-4.558054	-9.723238	16.605862	0.289827	32.259383	-9.879762	0.000000	-0.457141	0.066503	3.022396	-0.848956	0.088449	3.211296	-0.751036	0.161696	3.211296	-0.522466	0.161696	2.644597	-0.424501	0.135613	2.455697	-0.261210	0.103013	2.266797	-3.265309	0.752296	16.809663	0.000000	0.000000	12.794089	3.491260	-10.512270	-8.905738	-24.499109	-13.930750	107.625995	82.334823	0.370513	14.142396	13.069160	-10.406437	157.405526	0.270426	1.631159	-29.194833	-24.236085
3.350877	1.741449	-8.374909	83.084254	0.206393	0.983982	0.360416	-0.120508	4.711347	9.351221	7.772611	0.135658	30.570692	5.199494	0.000000	3.642253	-4.707863	-9.970847	16.226597	0.283208	32.143397	-9.690559	0.000000	-0.452742	0.120623	3.120418	-0.840787	0.160429	3.315444	-0.743810	0.293284	3.315444	-0.517439	0.293284	2.730365	-0.420416	0.245975	2.535339	-0.258697	0.186846	2.340313	-3.233891	1.364517	17.354826	0.000000	0.000000	12.862823	3.228966	-10.429759	-9.020290	-25.355382	-13.453011	108.659078	81.019618	0.793997	13.627346	14.942289	-9.504764	161.543160	0.250441	1.817713	-32.750682	-24.255231
3.368421	1.886783	-8.410091	82.916029	0.205899	0.984924	0.361185	-0.104343	4.784141	9.107253	7.646240	0.133452	30.271934	5.629740	0.000000	3.508516	-4.816879	-10.204509	15.862735	0.276857	32.037685	-9.482436	0.000000	-0.446509	0.162811	3.222916	-0.829212	0.216539	3.424349	-0.733570	0.395860	3.424349	-0.510315	0.395860	2.820052	-0.414629	0.332005	2.618619	-0.255135	0.252195	2.417187	-3.189371	1.841756	17.924894	0.000000	0.000000	12.983568	3.066492	-10.533564	-8.714218	-26.428793	-12.282976	109.785397	79.313900	0.945255	13.360668	17.026288	-8.474846	165.636182	0.232034	2.018095	-35.941556	-24.283625
3.385965	1.969073	-8.491362	82.765982	0.205553	0.985676	0.362056	0.001581	4.817368	8.890565	7.591138	0.132490	30.006305	5.962986	0.000000	3.448687	-4.877501	-10.419202	15.523282	0.270932	31.940163	-9.272899	0.000000	-0.436111	0.192216	3.305001	-0.809901	0.255647	3.511563	-0.716486	0.467353	3.511563	-0.498431	0.467353	2.891876	-0.404972	0.391966	2.685313	-0.249194	0.297742	2.478751	-3.115094	2.174383	18.381423	0.000000	0.000000	13.134202	3.042811	-10.673232	-7.765941	-27.625697	-10.122923	110.935983	77.295362	0.784520	13.351787	19.220814	-7.403390	169.677368	0.215374	2.212762	-39.298250	-24.279205
3.403509	1.995990	-8.564124	82.589494	0.205368	0.986282	0.362985	0.127011	4.809332	8.764243	7.589850	0.132468	29.771912	6.178350	0.000000	3.394585	-4.890797	-10.669163	15.210970	0.265482	31.864469	-9.046325	0.000000	-0.427221	0.210771	3.365402	-0.793391	0.280326	3.575740	-0.701881	0.512469	3.575740	-0.488270	0.512469	2.944727	-0.396717	0.429804	2.734389	-0.244114	0.326484	2.524052	-3.051593	2.384284	18.717358	0.000000	0.000000	13.253002	3.048612	-10.852008	-6.050689	-28.876295	-6.849524	112.042724	74.889865	0.401360	13.697812	21.480398	-6.294865	173.565010	0.201251	2.397084	-42.730824	-24.322952
3.421053	1.997287	-8.628497	82.465200	0.205206	0.986773	0.363961	0.259323	4.783531	8.641212	7.623810	0.133061	29.555212	6.304114	0.000000	3.361006	-4.878238	-10.857693	14.938320	0.260723	31.793786	-8.839985	0.000000	-0.418547	0.223866	3.380036	-0.777284	0.297742	3.591288	-0.687631	0.544308	3.591288	-0.478358	0.544308	2.957531	-0.388663	0.456508	2.746279	-0.239158	0.346768	2.535027	-2.989642	2.532417	18.798745	0.000000	0.000000	13.361467	3.109526	-10.918534	-3.488866	-30.039193	-2.366557	113.031712	72.534947	-0.269673	14.216101	23.786515	-5.152321	177.307946	0.188407	2.525241	-46.111420	-24.239736
3.438596	1.963371	-8.683758	82.363347	0.205058	0.987175	0.364927	0.403042	4.729839	8.541823	7.702302	0.134431	29.365492	6.331226	0.000000	3.337257	-4.824546	-10.990950	14.696194	0.256497	31.702016	-8.700425	0.000000	-0.407861	0.231796	3.350029	-0.757439	0.308288	3.559406	-0.670075	0.563588	3.559406	-0.466144	0.563588	2.931275	-0.378740	0.472678	2.721899	-0.233052	0.359051	2.512522	-2.913310	2.622118	18.631856	0.000000	0.000000	13.444194	3.201484	-10.823007	-0.119238	-30.983486	3.204790	113.850654	70.469005	-1.045285	14.964708	26.137645	-3.979269	180.747095	0.178327	2.617423	-49.241596	-24.069715
3.456140	1.935593	-8.709358	82.261977	0.204912	0.987530	0.365832	0.516275	4.679439	8.459496	7.790831	0.135976	29.197925	6.340307	0.000000	3.294186	-4.766522	-11.061440	14.490329	0.252904	31.600622	-8.663985	0.000000	-0.397161	0.240499	3.285359	-0.737567	0.319864	3.490694	-0.652495	0.584750	3.490694	-0.453915	0.584750	2.874689	-0.368803	0.490426	2.669354	-0.226938	0.372533	2.464019	-2.836880	2.720577	18.272181	0.000000	0.000000	13.507618	3.308950	-10.541831	3.967777	-31.671425	9.643332	114.478055	68.962095	-1.828747	15.899579	28.564158	-2.743327	184.049429	0.170054	2.662015	-52.023473	-23.860221
3.473684	1.916358	-8.703966	82.158132	0.204727	0.987876	0.366614	0.588902	4.631318	8.406978	7.874415	0.137434	29.048888	6.322408	0.000000	3.220227	-4.701675	-11.070976	14.308061	0.249723	31.463272	-8.736686	0.000000	-0.386013	0.251221	3.192579	-0.716865	0.334125	3.392115	-0.634181	0.610820	3.392115	-0.441175	0.610820	2.793506	-0.358452	0.512291	2.593970	-0.220568	0.389142	2.394434	-2.757255	2.841868	17.756165	0.000000	0.000000	13.548202	3.408784	-10.088549	8.686814	-32.107560	16.734209	114.911533	68.123114	-2.513893	16.942623	31.059366	-1.405205	187.233879	0.163770	2.672192	-54.340647	-23.652555
3.491228	1.903870	-8.676561	82.054453	0.204465	0.988234	0.367221	0.628544	4.579880	8.338318	7.949970	0.138753	28.924897	6.336581	0.000000	3.114881	-4.626298	-11.026978	14.132326	0.246656	31.271080	-8.900954	0.000000	-0.373214	0.264225	3.081178	-0.693095	0.351419	3.273752	-0.613153	0.642437	3.273752	-0.426546	0.642437	2.696031	-0.346566	0.538807	2.503457	-0.213254	0.409284	2.310884	-2.665829	2.988965	17.136588	0.000000	0.000000	13.562851	3.458389	-9.519383	13.965296	-32.295558	24.317830	115.204403	67.962801	-3.119970	18.045768	33.594371	0.083817	190.626064	0.158772	2.644362	-56.441190	-23.462287
3.508772	1.911419	-8.628766	81.958827	0.204065	0.988634	0.367603	0.629545	4.533374	8.227229	8.009124	0.139786	28.827840	6.433804	0.000000	2.977516	-4.550837	-10.922181	13.964588	0.243728	31.018090	-9.153162	0.000000	-0.358415	0.281532	2.959215	-0.665613	0.374437	3.144166	-0.588840	0.684516	3.144166	-0.409633	0.684516	2.589313	-0.332824	0.574099	2.404362	-0.204798	0.436093	2.219411	-2.560123	3.184743	16.458264	0.000000	0.000000	13.540088	3.437515	-8.901105	19.706353	-32.184500	32.273888	115.393892	68.355781	-3.728915	19.173516	36.114065	1.767961	194.342488	0.155156	2.573578	-58.351273	-23.298370
3.526316	1.963284	-8.554004	81.878902	0.203465	0.989126	0.367751	0.572990	4.513256	8.091606	8.034858	0.140235	28.738540	6.605148	0.000000	2.800448	-4.498466	-10.760367	13.806293	0.240965	30.704053	-9.477687	0.000000	-0.343967	0.307433	2.828857	-0.638782	0.408886	3.005661	-0.565104	0.747493	3.005661	-0.393120	0.747493	2.475250	-0.319408	0.626917	2.298446	-0.196543	0.476214	2.121643	-2.456924	3.477744	15.733255	0.000000	0.000000	13.476961	3.261534	-8.216818	25.797480	-31.609165	40.534416	115.440165	69.083207	-4.575571	20.383062	38.543167	3.653903	198.403225	0.152720	2.462733	-60.218378	-23.166536
3.543860	2.077734	-8.447120	81.809680	0.202637	0.989778	0.367679	0.452931	4.533078	7.891780	8.030300	0.140155	28.638767	6.915490	0.000000	2.576002	-4.485540	-10.558672	13.653420	0.238297	30.318859	-9.878987	0.000000	-0.330355	0.344184	2.697580	-0.613503	0.457765	2.866178	-0.542741	0.836850	2.866178	-0.377563	0.836850	2.360382	-0.306768	0.701861	2.191784	-0.188765	0.533142	2.023185	-2.359695	3.893484	15.003129	0.000000	0.000000	13.337487	2.917826	-7.525545	32.007399	-30.458326	48.884380	115.216677	70.351960	-5.726516	21.303717	40.805351	5.745891	202.670502	0.151267	2.306039	-61.710248	-23.076861
